<?xml version="1.0" encoding="utf-8"?>
<!-- Generator: Adobe Illustrator 16.0.4, SVG Export Plug-In . SVG Version: 6.00 Build 0)  -->
<!DOCTYPE svg PUBLIC "-//W3C//DTD SVG 1.1//EN" "http://www.w3.org/Graphics/SVG/1.1/DTD/svg11.dtd">
<svg version="1.1" id="Layer_1" xmlns="http://www.w3.org/2000/svg" xmlns:xlink="http://www.w3.org/1999/xlink" x="0px" y="0px"
	 width="792px" height="1008px" viewBox="0 0 792 1008" enable-background="new 0 0 792 1008" xml:space="preserve">
<title>logo</title>
<path fill="#EBD7D7" d="M149.963,330.724c-1.455,0.098-2.891,0.388-4.27,0.861c-1.58,0.494-3.094,1.176-4.511,2.032
	c-1.607,0.985-3.02,2.258-4.167,3.753c-1.237,1.785-2.168,3.763-2.755,5.854c-3.489,11.363-7.553,24.632-12.19,39.807
	s-9.63,31.393-14.979,48.656h-6.887l-26.342-80.818l-27.479,80.818h-6.508L24.724,377.9l-10.331-37.224
	c-0.448-1.453-1.147-2.817-2.066-4.029c-0.958-1.245-2.124-2.316-3.443-3.168c-1.345-0.888-2.838-1.529-4.408-1.894
	c-1.465-0.415-2.962-0.703-4.477-0.861v-5.234h42.699v5.234c-3.191,0.135-6.367,0.503-9.504,1.102c-2.64,0.528-3.96,1.435-3.96,2.72
	c0.012,0.659,0.081,1.316,0.207,1.963c0,0.792,0.275,1.446,0.378,1.963c1.125,4.338,3.122,11.501,5.992,21.487
	c2.87,9.986,7.14,24.908,12.81,44.765l26.102-77.754h7.231l26.377,79.51c3.558-12.281,6.611-22.968,9.16-32.059
	c2.548-9.091,4.706-16.919,6.474-23.484c1.194-4.591,1.928-7.736,2.204-9.435c0.271-1.431,0.42-2.883,0.448-4.339
	c-0.219-1.957-1.568-3.602-3.443-4.201c-3.535-1.401-7.288-2.17-11.088-2.272v-5.2h37.878V330.724L149.963,330.724z"/>
<path fill="#EBD7D7" d="M203.785,430.206h-47.176v-5.233l5.75-0.482c1.81-0.07,3.604-0.371,5.337-0.896
	c1.386-0.505,2.586-1.417,3.443-2.617c0.78-1.395,1.139-2.985,1.033-4.58v-75.756c0.052-1.487-0.219-2.967-0.792-4.339
	c-0.861-1.421-2.226-2.466-3.822-2.927c-1.773-0.648-3.592-1.166-5.44-1.549c-1.811-0.449-3.652-0.76-5.51-0.93v-5.406h47.176v5.234
	c-1.834,0.078-3.662,0.262-5.475,0.551c-1.853,0.278-3.683,0.692-5.475,1.239c-1.593,0.347-2.967,1.347-3.788,2.755
	c-0.651,1.377-0.98,2.884-0.964,4.408v75.756c-0.034,1.516,0.334,3.013,1.067,4.339c0.842,1.37,2.113,2.423,3.616,2.996
	c1.652,0.562,3.344,1,5.062,1.309c1.95,0.424,3.931,0.688,5.923,0.792v5.233l0,0L203.785,430.206z"/>
<path fill="#EBD7D7" d="M300.65,399.043l-2.204,30.991h-81.852v-5.062l5.165-0.482c1.621-0.103,3.22-0.427,4.752-0.964
	c1.344-0.541,2.461-1.525,3.168-2.79c0.733-1.474,1.088-3.106,1.033-4.752v-74.999c0.029-1.525-0.265-3.039-0.861-4.442
	c-0.707-1.452-1.937-2.584-3.443-3.168c-1.521-0.744-3.113-1.332-4.752-1.756c-1.652-0.492-3.347-0.826-5.062-0.999v-5.131h44.283
	v5.234c-1.796,0.113-3.581,0.366-5.337,0.758c-1.606,0.292-3.193,0.684-4.752,1.17c-1.534,0.462-2.791,1.568-3.443,3.03
	c-0.622,1.446-0.938,3.006-0.93,4.58v70.315c-0.051,2.534,0.11,5.068,0.482,7.576c0.231,1.609,1.023,3.085,2.238,4.166
	c1.503,1.021,3.25,1.627,5.062,1.757c3.123,0.313,6.262,0.452,9.4,0.413c1.814,0,3.708,0,5.682,0
	c1.88-0.088,3.754-0.283,5.613-0.586c1.615-0.265,3.205-0.668,4.752-1.205c1.203-0.38,2.292-1.055,3.168-1.963
	c2.674-3.212,5.038-6.671,7.059-10.33c2.174-3.565,4.041-7.309,5.579-11.191h5.2L300.65,399.043z"/>
<path fill="#EBD7D7" d="M393.865,399.043l-2.204,30.991h-81.748v-5.062l5.131-0.517c1.62-0.103,3.22-0.427,4.752-0.965
	c1.344-0.54,2.462-1.524,3.168-2.789c0.633-1.511,0.881-3.155,0.723-4.786v-74.93c0.028-1.525-0.266-3.038-0.86-4.442
	c-0.71-1.45-1.939-2.581-3.443-3.168c-1.521-0.744-3.113-1.332-4.752-1.756c-1.54-0.472-3.119-0.806-4.718-0.999v-5.131h44.214
	v5.234c-1.796,0.113-3.58,0.366-5.337,0.758c-1.606,0.292-3.193,0.684-4.752,1.17c-1.534,0.462-2.791,1.568-3.443,3.03
	c-0.622,1.446-0.938,3.006-0.93,4.58v70.315c-0.051,2.534,0.11,5.068,0.481,7.576c0.231,1.609,1.024,3.085,2.238,4.166
	c1.504,1.021,3.25,1.627,5.062,1.757c3.123,0.313,6.262,0.451,9.4,0.413c1.813,0,3.707,0,5.682,0
	c1.881-0.088,3.755-0.283,5.613-0.586c1.615-0.264,3.205-0.667,4.752-1.205c1.203-0.379,2.293-1.054,3.168-1.963
	c2.614-3.22,4.92-6.678,6.887-10.33c2.175-3.564,4.041-7.309,5.578-11.191h5.269L393.865,399.043z"/>
<path fill="#EBD7D7" d="M449.478,430.206h-47.142v-5.233l5.751-0.448c1.81-0.07,3.604-0.371,5.337-0.896
	c1.386-0.504,2.587-1.417,3.443-2.617c0.811-1.396,1.193-3.001,1.103-4.614v-75.756c0.051-1.487-0.219-2.967-0.792-4.339
	c-0.861-1.421-2.226-2.466-3.822-2.927c-1.796-0.651-3.638-1.169-5.51-1.549c-1.809-0.472-3.65-0.806-5.51-0.999v-5.337h47.142
	v5.234c-1.835,0.078-3.662,0.262-5.476,0.551c-1.875,0.262-3.729,0.665-5.544,1.205c-1.604,0.388-2.969,1.439-3.753,2.893
	c-0.608,1.399-0.891,2.918-0.827,4.442v75.756c-0.032,1.516,0.336,3.012,1.067,4.339c0.854,1.374,2.137,2.427,3.65,2.996
	c1.652,0.562,3.344,1,5.062,1.309c1.949,0.424,3.93,0.688,5.922,0.792v5.233l0,0L449.478,430.206z"/>
<path fill="#EBD7D7" d="M568.553,430.206h-43.525v-5.233c3.211-0.155,6.397-0.652,9.504-1.481c2.525-0.734,3.788-1.642,3.788-2.72
	c0.038-0.527,0.038-1.057,0-1.584c-0.087-0.577-0.237-1.144-0.448-1.688l-8.815-23.691h-36.639
	c-1.377,3.443-2.524,6.439-3.443,8.987c-0.918,2.549-1.698,4.913-2.341,7.094c-0.538,1.697-0.986,3.421-1.344,5.165
	c-0.217,1.043-0.344,2.104-0.379,3.168c0.361,2.39,2.255,4.256,4.649,4.58c3.335,1.126,6.813,1.775,10.33,1.929v5.233h-39.187
	v-4.992c1.604-0.163,3.192-0.451,4.752-0.861c1.678-0.365,3.283-1.006,4.752-1.894c1.76-1.165,3.309-2.62,4.58-4.305
	c1.303-1.869,2.367-3.894,3.168-6.026c5.279-13.131,11.088-27.915,17.424-44.352c6.336-16.437,11.994-31.003,16.977-43.698h5.923
	l34.848,90.288c0.602,1.666,1.448,3.233,2.514,4.648c1.126,1.341,2.449,2.502,3.926,3.444c1.378,0.784,2.862,1.363,4.407,1.722
	c1.495,0.42,3.03,0.686,4.58,0.792v5.233V430.206z M526.439,387.438l-15.841-40.633l-15.633,40.633H526.439z"/>
<path fill="#EBD7D7" d="M707.463,430.206h-46.315v-5.233c2.167-0.036,4.329-0.209,6.474-0.517c1.872-0.099,3.712-0.518,5.441-1.24
	c1.391-0.757,2.573-1.845,3.443-3.168c0.758-1.392,1.127-2.962,1.067-4.545v-76.239h-1.137l-35.777,89.254h-3.615l-34.091-91.148
	h-1.033v62.568c-0.131,4.619,0.25,9.238,1.137,13.773c0.414,2.595,1.616,4.999,3.443,6.887c2.047,1.487,4.399,2.499,6.887,2.962
	c2.17,0.679,4.394,1.174,6.646,1.48v5.234h-42.286v-5.303c2.316-0.219,4.617-0.587,6.887-1.103c2.046-0.369,3.979-1.206,5.647-2.444
	c1.839-1.656,3.055-3.893,3.443-6.336c0.781-4.71,1.104-9.484,0.964-14.257v-53.649c0.084-2.582-0.289-5.158-1.102-7.61
	c-0.654-1.818-1.741-3.449-3.168-4.752c-1.577-1.378-3.433-2.4-5.44-2.996c-2.109-0.606-4.282-0.964-6.475-1.067v-5.269h35.709
	l29.89,78.648l25.585-65.77c0.946-2.474,1.739-5.004,2.376-7.576c0.511-1.725,0.891-3.486,1.137-5.269h34.159v5.2
	c-1.77,0.095-3.53,0.313-5.269,0.654c-1.607,0.256-3.195,0.625-4.752,1.102c-1.527,0.434-2.786,1.517-3.443,2.961
	c-0.603,1.427-0.907,2.962-0.896,4.511v75.515c-0.034,1.484,0.271,2.957,0.896,4.305c0.782,1.395,1.988,2.504,3.443,3.168
	c1.51,0.686,3.11,1.149,4.752,1.378c1.772,0.352,3.567,0.581,5.372,0.688v5.233l0,0V430.206z"/>
<path fill="#EBD7D7" d="M785.492,382.17c2.165,2.38,3.839,5.166,4.924,8.195c1.126,3.325,1.662,6.821,1.584,10.33
	c0.188,8.791-3.609,17.196-10.33,22.865c-7.045,6.11-16.126,9.354-25.447,9.091c-4.755-0.011-9.48-0.742-14.016-2.17
	c-4.22-1.281-8.267-3.073-12.052-5.337l-3.168,5.372h-5.923l-1.033-36.123h5.957c1.122,4.105,2.573,8.112,4.339,11.983
	c1.692,3.625,3.896,6.987,6.543,9.986c2.515,2.849,5.555,5.188,8.953,6.887c3.713,1.787,7.795,2.672,11.914,2.583
	c3.027,0.057,6.042-0.397,8.919-1.343c4.565-1.428,8.166-4.965,9.676-9.504c0.799-2.444,1.184-5.005,1.137-7.576
	c0.034-4.157-1.164-8.23-3.443-11.708c-2.565-3.778-6.251-6.656-10.537-8.23c-3.168-1.263-6.83-2.674-10.985-4.235
	s-7.725-3.019-10.709-4.373c-5.386-2.232-10.123-5.785-13.773-10.331c-3.458-4.925-5.179-10.862-4.89-16.873
	c-0.015-3.846,0.832-7.646,2.479-11.123c1.656-3.505,3.998-6.643,6.888-9.229c2.954-2.625,6.377-4.669,10.089-6.026
	c3.877-1.446,7.983-2.181,12.121-2.169c4.415-0.074,8.806,0.673,12.947,2.204c3.598,1.396,7.057,3.125,10.331,5.166l3.03-5.028
	h5.923l0.585,34.779h-5.854c-1.019-3.871-2.237-7.687-3.65-11.433c-1.291-3.511-3.064-6.826-5.269-9.848
	c-2.053-2.831-4.696-5.18-7.748-6.887c-3.462-1.796-7.327-2.673-11.226-2.548c-4.414-0.084-8.691,1.531-11.949,4.511
	c-3.201,2.771-5.005,6.821-4.924,11.054c-0.153,3.993,0.955,7.933,3.168,11.26c2.407,3.19,5.599,5.705,9.263,7.3
	c3.458,1.669,6.998,3.163,10.606,4.476c3.466,1.263,6.829,2.606,10.089,4.029c2.892,1.302,5.698,2.785,8.402,4.442
	C781.036,378.11,783.413,379.988,785.492,382.17z"/>
<path fill="#EBD7D7" d="M157.814,527.45c2.153,2.351,3.825,5.1,4.924,8.092c1.126,3.325,1.663,6.821,1.584,10.331
	c0.188,8.791-3.609,17.195-10.331,22.864c-7.06,6.073-16.139,9.28-25.447,8.987c-4.754-0.011-9.479-0.742-14.015-2.169
	c-4.239-1.245-8.309-3.002-12.121-5.234l-3.134,5.303h-5.923l-1.033-35.847h5.957c1.122,4.104,2.573,8.112,4.339,11.983
	c1.693,3.624,3.896,6.987,6.542,9.986c2.514,2.85,5.554,5.188,8.953,6.887c3.712,1.788,7.795,2.673,11.915,2.583
	c3.027,0.057,6.042-0.397,8.918-1.343c2.333-0.791,4.446-2.125,6.164-3.892c1.556-1.641,2.732-3.604,3.443-5.75
	c0.798-2.444,1.182-5.005,1.136-7.576c0.036-4.157-1.162-8.231-3.443-11.708c-2.563-3.779-6.25-6.658-10.537-8.229
	c-3.237-1.171-6.921-2.525-11.054-4.063c-4.132-1.538-7.69-2.984-10.675-4.339c-5.387-2.23-10.124-5.783-13.774-10.33
	c-3.47-4.921-5.203-10.858-4.924-16.873c-0.019-3.832,0.816-7.62,2.445-11.088c1.655-3.507,3.997-6.645,6.887-9.229
	c2.955-2.625,6.377-4.67,10.089-6.026c3.899-1.454,8.029-2.188,12.19-2.169c4.415-0.073,8.805,0.674,12.948,2.203
	c3.597,1.395,7.056,3.124,10.33,5.165l3.03-5.027h5.923l0.585,34.779h-5.819c-1.016-3.872-2.234-7.688-3.65-11.433
	c-1.29-3.521-3.063-6.848-5.269-9.883c-2.052-2.83-4.696-5.18-7.748-6.887c-3.462-1.797-7.327-2.675-11.226-2.548
	c-4.41-0.094-8.687,1.509-11.949,4.477c-3.195,2.748-5.011,6.77-4.958,10.984c-0.154,3.993,0.955,7.934,3.168,11.261
	c2.394,3.198,5.572,5.725,9.229,7.334c3.458,1.67,6.998,3.164,10.606,4.477c3.466,1.263,6.83,2.605,10.089,4.029
	c2.924,1.265,5.765,2.714,8.505,4.339C153.314,523.386,155.714,525.264,157.814,527.45z"/>
<path fill="#EBD7D7" d="M260.327,483.339c4.727,4.959,8.415,10.813,10.847,17.218c2.688,7.236,4.019,14.905,3.926,22.623
	c0.102,7.737-1.253,15.424-3.995,22.658c-2.477,6.438-6.251,12.299-11.088,17.218c-4.519,4.683-9.943,8.396-15.943,10.916
	c-12.678,5.215-26.917,5.128-39.531-0.241c-5.991-2.589-11.374-6.4-15.805-11.191c-4.56-5.069-8.071-10.991-10.331-17.424
	c-2.562-7.003-3.844-14.409-3.788-21.866c-0.184-7.735,1.102-15.436,3.788-22.692c2.512-6.396,6.243-12.244,10.984-17.218
	c4.545-4.773,10.033-8.55,16.116-11.088c12.434-5.157,26.409-5.157,38.842,0C250.391,474.791,255.833,478.568,260.327,483.339z
	 M249.342,557.546c2.849-4.699,4.886-9.845,6.026-15.22c2.588-12.791,2.518-25.977-0.207-38.739
	c-1.171-5.432-3.255-10.624-6.164-15.358c-2.595-4.053-6.141-7.41-10.331-9.779c-4.286-2.365-9.121-3.553-14.015-3.443
	c-5.307-0.158-10.542,1.255-15.048,4.063c-4.097,2.778-7.482,6.482-9.883,10.812c-2.622,4.754-4.481,9.89-5.509,15.22
	c-1.221,6.018-1.821,12.146-1.791,18.285c-0.061,6.444,0.586,12.877,1.929,19.181c1.146,5.379,3.195,10.525,6.061,15.22
	c2.476,4.153,5.927,7.64,10.055,10.158c4.394,2.523,9.398,3.787,14.463,3.65c4.997,0.076,9.921-1.197,14.256-3.685
	C243.398,565.378,246.895,561.81,249.342,557.546z"/>
<path fill="#EBD7D7" d="M387.356,476.073c-2.145,0.184-4.267,0.576-6.336,1.171c-2.145,0.467-4.209,1.244-6.129,2.308
	c-2.041,1.815-3.279,4.366-3.443,7.093c-0.685,4.396-0.996,8.844-0.93,13.292v76.617h-6.543l-63.463-85.673v53.993
	c-0.126,4.676,0.255,9.353,1.137,13.946c0.423,2.592,1.624,4.993,3.443,6.887c2.044,1.506,4.396,2.54,6.887,3.03
	c2.251,0.681,4.555,1.176,6.887,1.48v5.234h-42.63v-5.165c2.333-0.285,4.637-0.77,6.887-1.446c2.099-0.418,4.105-1.212,5.922-2.342
	c1.839-1.655,3.055-3.892,3.444-6.336c0.791-4.79,1.114-9.645,0.964-14.497v-51.479c0.003-2.346-0.392-4.675-1.171-6.888
	c-0.612-1.977-1.7-3.774-3.168-5.233c-2.117-1.826-4.559-3.24-7.197-4.167c-2.337-0.991-4.809-1.63-7.334-1.894v-5.166h29.82
	l58.884,79.854v-49.827c0.13-4.712-0.263-9.424-1.171-14.049c-0.363-2.512-1.579-4.822-3.443-6.543
	c-2.146-1.248-4.468-2.165-6.887-2.721c-2.321-0.729-4.709-1.225-7.128-1.48v-5.234h42.733v5.234l0,0H387.356z"/>
<path fill="#EBD7D7" d="M472.273,483.339c4.726,4.96,8.413,10.813,10.847,17.218c2.687,7.236,4.018,14.905,3.926,22.623
	c0.102,7.737-1.254,15.424-3.995,22.658c-2.477,6.438-6.251,12.299-11.088,17.218c-4.52,4.682-9.943,8.396-15.943,10.916
	c-12.596,5.243-26.763,5.243-39.358,0c-6.022-2.645-11.42-6.528-15.84-11.398c-4.561-5.069-8.071-10.991-10.331-17.424
	c-2.561-7.003-3.844-14.409-3.787-21.866c-0.134-7.758,1.211-15.471,3.96-22.727c2.512-6.396,6.242-12.244,10.984-17.218
	c4.545-4.773,10.032-8.55,16.115-11.088c12.434-5.157,26.409-5.157,38.843,0C462.535,474.829,467.869,478.604,472.273,483.339z
	 M461.426,557.546c2.85-4.699,4.887-9.844,6.026-15.22c2.588-12.791,2.518-25.977-0.206-38.739
	c-1.172-5.432-3.256-10.624-6.164-15.358c-2.595-4.053-6.142-7.41-10.331-9.779c-4.285-2.365-9.121-3.553-14.015-3.443
	c-5.307-0.158-10.542,1.255-15.048,4.063c-4.178,2.763-7.636,6.48-10.09,10.847c-2.621,4.754-4.48,9.89-5.509,15.221
	c-1.221,6.018-1.821,12.145-1.791,18.284c-0.024,6.438,0.657,12.857,2.031,19.146c1.147,5.379,3.197,10.524,6.061,15.22
	c2.478,4.152,5.929,7.639,10.056,10.158c4.394,2.523,9.397,3.787,14.462,3.65c4.974,0.063,9.873-1.209,14.188-3.685
	C455.373,565.401,458.931,561.831,461.426,557.546z"/>
<path fill="#EBD7D7" d="M617.45,575.59h-46.246v-5.269c2.167-0.035,4.329-0.208,6.474-0.517c1.859-0.102,3.688-0.521,5.406-1.239
	c1.392-0.756,2.574-1.845,3.443-3.168c0.76-1.392,1.129-2.962,1.068-4.546v-76.17h-1.103l-35.743,89.187h-3.685l-33.987-91.08
	h-0.964v62.534c-0.096,4.622,0.32,9.242,1.239,13.773c0.415,2.595,1.617,4.999,3.443,6.887c2.047,1.487,4.4,2.499,6.888,2.962
	c2.17,0.678,4.393,1.173,6.646,1.48v5.199h-42.354v-5.269c2.316-0.22,4.617-0.588,6.887-1.102c2.045-0.37,3.978-1.207,5.647-2.445
	c1.837-1.657,3.052-3.893,3.443-6.336c0.78-4.709,1.103-9.483,0.964-14.256v-53.614c0.082-2.582-0.291-5.158-1.102-7.61
	c-0.654-1.818-1.741-3.449-3.168-4.752c-1.63-1.389-3.547-2.4-5.613-2.962c-2.142-0.624-4.349-0.994-6.577-1.102v-5.338h35.641
	l29.992,78.581l25.654-65.736c0.945-2.475,1.738-5.005,2.376-7.576c0.488-1.727,0.846-3.487,1.067-5.269h34.159v5.234
	c-1.77,0.095-3.529,0.313-5.269,0.654c-1.607,0.256-3.195,0.624-4.752,1.103c-1.526,0.434-2.786,1.516-3.443,2.961
	c-0.604,1.427-0.908,2.962-0.896,4.511v75.481c-0.041,1.496,0.266,2.981,0.896,4.339c0.783,1.395,1.988,2.504,3.443,3.168
	c1.509,0.688,3.109,1.152,4.752,1.377c1.773,0.353,3.567,0.582,5.372,0.688v5.269l0,0V575.59z"/>
<path fill="#EBD7D7" d="M732.049,575.59h-43.354v-5.269c3.212-0.155,6.397-0.652,9.504-1.48c2.525-0.734,3.788-1.642,3.788-2.721
	c0.037-0.527,0.037-1.057,0-1.584c-0.087-0.577-0.236-1.143-0.447-1.688l-8.678-23.484h-36.983
	c-1.377,3.443-2.524,6.439-3.443,8.987c-0.918,2.549-1.698,4.913-2.341,7.094c-0.538,1.697-0.986,3.422-1.344,5.165
	c-0.217,1.044-0.344,2.104-0.378,3.169c0.36,2.389,2.254,4.255,4.648,4.579c3.336,1.125,6.813,1.774,10.33,1.929v5.234h-39.256
	v-5.234c1.604-0.163,3.193-0.451,4.752-0.861c1.678-0.366,3.283-1.006,4.752-1.894c1.748-1.125,3.296-2.533,4.58-4.167
	c1.301-1.869,2.365-3.894,3.168-6.025c5.28-13.132,11.088-27.915,17.424-44.353c6.336-16.437,11.995-31.025,16.977-43.767h6.061
	l34.848,90.288c0.601,1.667,1.448,3.233,2.514,4.648c1.126,1.341,2.45,2.502,3.926,3.443c1.377,0.796,2.861,1.388,4.408,1.757
	c1.495,0.419,3.03,0.685,4.579,0.792v5.233L732.049,575.59z M689.936,532.822l-15.84-40.634l-15.634,40.634H689.936z"/>
<rect x="145.866" y="615.121" fill="#EBD7D7" width="500.269" height="3.375"/>
<path fill="#EBD7D7" d="M237.944,659.852c-0.517-0.344-0.999-0.688-1.584-1.033c-1.801-1.214-3.923-1.861-6.095-1.859
	c-3.562,0.014-6.927,1.633-9.16,4.408c-1.461,2.074-2.232,4.556-2.204,7.094c0.017,1.752,0.379,3.484,1.067,5.096
	c1.942,3.92,5.957,6.382,10.331,6.336c2.749-0.098,5.389-1.103,7.507-2.857v5.131c-2.335,1.274-4.95,1.949-7.61,1.962
	c-3.772-0.024-7.421-1.351-10.33-3.753c-3.445-2.987-5.377-7.356-5.269-11.914c-0.034-3.79,1.312-7.462,3.788-10.331
	c3.126-3.312,7.463-5.214,12.018-5.269c2.656,0.119,5.259,0.788,7.645,1.963v5.234L237.944,659.852z"/>
<path fill="#EBD7D7" d="M281.78,683.715h-4.752l-3.134-7.334h-13.12l-3.443,7.334h-4.821l15.186-32.265L281.78,683.715z
	 M262.6,672.421h9.676l-4.683-10.71L262.6,672.421z"/>
<path fill="#EBD7D7" d="M302.785,653.24v26.377h9.263v4.098h-13.774V653.24h4.408H302.785z"/>
<path fill="#EBD7D7" d="M338.838,653.172v30.405h-4.477v-30.405H338.838z"/>
<path fill="#EBD7D7" d="M377.096,653.206v4.27h-10.537v7.473h10.33v4.063h-10.537v14.635h-4.339v-30.44h15.014H377.096z"/>
<path fill="#EBD7D7" d="M397.377,657.579c3.01-3.146,7.183-4.914,11.536-4.89c3.652-0.003,7.201,1.208,10.089,3.443
	c3.662,2.991,5.797,7.462,5.82,12.19c-0.01,2.037-0.432,4.052-1.24,5.923c-2.466,5.909-8.266,9.735-14.669,9.676
	c-3.764-0.011-7.409-1.312-10.33-3.685c-3.696-3.05-5.77-7.642-5.613-12.431C393.168,663.979,394.731,660.351,397.377,657.579z
	 M399.892,675.451c3.975,4.898,11.116,5.766,16.149,1.963c2.758-2.142,4.382-5.428,4.408-8.919c-0.013-1.576-0.34-3.133-0.965-4.58
	c-2.528-5.807-9.284-8.464-15.091-5.936c-5.807,2.527-8.464,9.284-5.936,15.091c0.368,0.847,0.838,1.646,1.398,2.381H399.892z"/>
<path fill="#EBD7D7" d="M456.949,683.646l-9.297-12.982h-1.859v13.051h-4.271v-30.509h8.919c2.044-0.07,4.062,0.481,5.785,1.584
	c2.077,1.672,3.25,4.222,3.168,6.887c0.101,2.994-1.326,5.835-3.788,7.541c-0.856,0.498-1.786,0.857-2.755,1.067
	c1.412,2.032,2.789,4.063,4.271,6.061c1.48,1.998,2.203,2.962,3.443,4.512c0.654,0.895,1.239,1.859,1.859,2.755h-5.476l0,0V683.646z
	 M445.861,657.373v9.504h3.443c1.849,0.169,3.651-0.641,4.752-2.136c0.595-0.947,0.895-2.05,0.861-3.168
	c0.059-1.313-0.487-2.582-1.48-3.443c-1.031-0.64-2.231-0.952-3.443-0.896h-4.236l0,0L445.861,657.373z"/>
<path fill="#EBD7D7" d="M501.198,653.31h4.442v31.576c-3.443-3.443-6.887-6.887-10.331-10.537c-2.065-2.065-4.098-4.166-6.129-6.336
	c-2.032-2.169-4.167-4.441-6.164-6.887c0,1.48,0.207,2.927,0.241,4.339s0,2.582,0,3.891v14.084h-4.614v-32.368
	c4.27,4.235,8.54,8.471,12.672,12.672c3.443,3.443,6.715,6.887,9.986,10.33c0-0.964-0.207-1.963-0.207-2.893s0-1.688,0-2.548V653.24
	L501.198,653.31z"/>
<path fill="#EBD7D7" d="M531.811,653.172v30.405H527.3v-30.405H531.811z"/>
<path fill="#EBD7D7" d="M577.472,683.715h-4.752l-3.1-7.334h-13.119l-3.444,7.334h-4.752l15.289-32.23L577.472,683.715z
	 M558.291,672.421h9.676l-4.683-10.71L558.291,672.421z"/>
</svg>
